:SAMPLES-PER-SECOND 30
:FRAME-RANGE 1-3535
:FULLY-SPECIFIED
:DEGREES
1105
root  30.0133 38.6276 32.5954 7.0553 -22.3378 -0.97944
RightUpLeg  -0.739804 7.74106 7.93761
RightLeg  20.3381 -0.680936 -0.49431
RightFoot  -19.6218 -0.528779 -5.46788
RightToes  5.38503e-012 1.26228e-014 -6.01869e-014
Spine  -2.8359 1.3084 2.06654
Spine1  10.3674 2.02231 -3.18889
HEad  22.5515 -20.8811 5.83541
LeftShoulder1  0.982376 -0.372433 -20.5266
LeftArm  -3.24113 15.0234 -43.7916
LeftForeArm  29.5986 6.11775 -12.3149
LeftHand  -0.068049 4.14812 4.63585
RightShoulder  1.62007 2.3307 22.5305
RightArm  9.27752 9.56896 62.9408
RightForeArm  45.0052 17.3713 6.97643
RightHand  0.166351 -6.53691 -18.2101
LeftUpLeg  -30.7245 0.608385 5.1763
LeftLeg  -0.452609 -9.63824 2.20993
LeftFoot  -4.96963 0.53632 -9.08779
LeftToes  8.9788e-011 3.29689e-010 2.1201e-011
1106
root  29.5774 38.3912 34.1892 6.29358 -23.3328 -1.14579
RightUpLeg  2.38382 7.95771 8.02887
RightLeg  21.5661 0.0412125 -0.199618
RightFoot  -20.669 -0.529202 -4.77059
RightToes  5.38503e-012 1.26228e-014 -6.01869e-014
Spine  -4.03811 1.39552 1.79717
Spine1  11.127 2.10001 -3.14922
HEad  23.9372 -21.755 5.92589
LeftShoulder1  0.850997 0.113775 -20.4734
LeftArm  -2.97307 15.9533 -43.6745
LeftForeArm  30.1707 6.16377 -12.4404
LeftHand  -0.0647932 4.24454 4.65035
RightShoulder  1.64217 2.31034 23.0599
RightArm  -0.108375 9.56763 62.1655
RightForeArm  57.1995 11.6417 9.98917
RightHand  0.217832 -6.86028 -18.2899
LeftUpLeg  -30.3741 0.735792 4.96722
LeftLeg  -0.556346 -9.95523 1.82497
LeftFoot  -7.25383 0.465833 -11.8065
LeftToes  8.9788e-011 3.29689e-010 2.1201e-011
1107
root  29.1395 38.102 35.8106 5.82025 -23.9111 -1.22282
RightUpLeg  4.7108 7.7772 7.93504
RightLeg  23.7561 0.827419 0.176953
RightFoot  -21.4644 -0.500526 -4.01004
RightToes  5.38503e-012 1.26228e-014 -6.01869e-014
Spine  -5.05817 1.35572 1.38016
Spine1  11.456 2.09531 -3.20956
HEad  24.4558 -23.9529 6.30803
LeftShoulder1  0.741916 0.519433 -20.4362
LeftArm  -2.49884 16.5823 -43.449
LeftForeArm  31.5098 5.95893 -12.6061
LeftHand  -0.0581531 4.42117 4.59458
RightShoulder  1.60896 2.04549 23.9277
RightArm  -7.20503 8.60552 60.7892
RightForeArm  65.5417 6.62045 10.9823
RightHand  0.288009 -7.26814 -18.6443
LeftUpLeg  -31.1815 -0.481133 4.64515
LeftLeg  4.30042 -10.7433 1.37817
LeftFoot  -4.80743 0.534028 -8.83943
LeftToes  8.9788e-011 3.29689e-010 2.1201e-011
1108
root  28.6919 37.8474 37.4074 5.12433 -25.1402 -0.757292
RightUpLeg  6.14445 8.51653 7.27353
RightLeg  27.5363 1.69637 0.730511
RightFoot  -21.4249 -0.388626 -2.76153
RightToes  5.38503e-012 1.26228e-014 -6.01869e-014
Spine  -5.60981 1.45835 0.202754
Spine1  11.6463 2.33318 -3.3506
HEad  23.9453 -26.5973 6.90141
LeftShoulder1  0.604076 1.04836 -20.5776
LeftArm  -1.67722 17.2055 -43.0748
LeftForeArm  32.8257 4.9547 -12.8681
LeftHand  -0.0570903 4.47844 4.72863
RightShoulder  1.56293 1.75978 24.7486
RightArm  -11.4303 7.24909 59.4061
RightForeArm  69.077 1.99965 10.4578
RightHand  0.294757 -7.23414 -19.3369
LeftUpLeg  -31.4969 -6.03599 6.12974
LeftLeg  9.53337 -8.33416 1.60763
LeftFoot  0.173157 1.24545 -12.3273
LeftToes  8.9788e-011 3.29689e-010 2.1201e-011
1109
root  28.2086 37.6045 38.9646 3.9408 -26.1103 0.861718
RightUpLeg  5.58886 8.7209 5.34997
RightLeg  34.6956 3.05194 2.01785
RightFoot  -19.7691 -0.188133 -0.738185
RightToes  5.38503e-012 1.26228e-014 -6.01869e-014
Spine  -5.87003 1.20853 -2.57625
Spine1  11.6382 2.13557 -3.05416
HEad  22.9012 -28.8581 8.14304
LeftShoulder1  0.541927 1.31179 -21.0253
LeftArm  -0.440688 17.4929 -42.127
LeftForeArm  32.6842 3.58972 -13.2198
LeftHand  -0.0563774 4.5079 4.78065
RightShoulder  1.55866 1.51799 26.271
RightArm  -14.4424 6.34146 57.9765
RightForeArm  69.621 -3.02386 8.89616
RightHand  0.337834 -7.40252 -20.1262
LeftUpLeg  -32.2285 -11.003 7.23472
LeftLeg  15.1492 -3.47828 -0.166346
LeftFoot  3.56137 1.66198 -12.8308
LeftToes  8.9788e-011 3.29689e-010 2.1201e-011
1110
root  27.7742 37.475 40.4223 2.68384 -26.8524 2.37594
RightUpLeg  2.80512 5.72106 1.96732
RightLeg  44.3266 5.55119 5.48178
RightFoot  -14.1593 -0.0432316 2.14144
RightToes  5.38503e-012 1.26228e-014 -6.01869e-014
Spine  -5.74456 0.941743 -4.38236
Spine1  11.7567 2.08008 -3.49986
HEad  22.2474 -31.0877 8.70272
LeftShoulder1  0.664252 0.883186 -21.2818
LeftArm  0.677142 16.5562 -41.6981
LeftForeArm  32.5619 3.37998 -13.5525
LeftHand  -0.0661122 4.2658 4.88574
RightShoulder  1.5522 1.4531 26.587
RightArm  -19.8608 5.02974 57.8334
RightForeArm  70.64 -5.70793 6.11214
RightHand  0.340051 -7.35633 -20.6706
LeftUpLeg  -31.5517 -9.99169 4.83928
LeftLeg  19.5759 -3.65676 -1.1159
LeftFoot  4.04654 1.556 -11.669
LeftToes  8.9788e-011 3.29689e-010 2.1201e-011
1111
root  27.3896 37.5411 41.728 1.80969 -28.2831 3.41672
RightUpLeg  -1.81204 3.33548 -0.793948
RightLeg  54.3645 5.23279 7.40831
RightFoot  -5.56006 -0.335275 5.88402
RightToes  5.38503e-012 1.26228e-014 -6.01869e-014
Spine  -5.40345 0.85511 -5.15571
Spine1  11.5755 2.30953 -4.5628
HEad  22.1534 -32.5903 8.08994
LeftShoulder1  0.734869 0.624433 -21.2691
LeftArm  0.88089 14.7596 -42.0335
LeftForeArm  33.5165 3.74325 -13.6176
LeftHand  -0.0560743 4.46281 4.50514
RightShoulder  1.52009 1.39207 26.3126
RightArm  -24.7609 3.71493 57.8877
RightForeArm  71.756 -5.24938 3.59538
RightHand  0.442126 -7.98444 -20.2667
LeftUpLeg  -30.1922 -8.12895 2.55144
LeftLeg  22.7835 -4.33594 -1.66428
LeftFoot  1.98883 0.945026 -8.18181
LeftToes  8.9788e-011 3.29689e-010 2.1201e-011
1112
root  27.0064 37.7097 42.9281 0.862488 -30.3905 4.61514
RightUpLeg  -7.55043 1.73577 -2.90322
RightLeg  63.3088 2.55877 4.97801
RightFoot  4.11687 -1.16074 8.74448
RightToes  5.38503e-012 1.26228e-014 -6.01869e-014
Spine  -5.29929 0.721695 -6.43306
Spine1  11.734 2.35603 -5.07113
HEad  21.9368 -33.2471 7.09362
LeftShoulder1  0.715312 0.71866 -21.527
LeftArm  0.653653 12.5946 -42.3494
LeftForeArm  34.2972 3.67327 -13.5001
LeftHand  -0.0476143 4.69842 4.41462
RightShoulder  1.49059 1.32047 26.1661
RightArm  -27.1186 3.37577 57.3807
RightForeArm  73.6826 -4.93745 2.19331
RightHand  0.499964 -8.38923 -19.8077
LeftUpLeg  -28.0223 -7.11741 0.833153
LeftLeg  24.1653 -3.41449 -1.33561
LeftFoot  -0.662101 0.655167 -6.96305
LeftToes  8.9788e-011 3.29689e-010 2.1201e-011
